<?xml version="1.0"?>
<svg xmlns="http://www.w3.org/2000/svg" xmlns:xlink="http://www.w3.org/1999/xlink" version="1.1" viewBox="0 0 192 192" width="128px" height="128px"><g fill="none" fill-rule="nonzero" stroke="none" stroke-width="none" stroke-linecap="none" stroke-linejoin="none" stroke-miterlimit="10" stroke-dasharray="" stroke-dashoffset="0" font-family="none" font-weight="none" font-size="none" text-anchor="none" style="mix-blend-mode: normal"><path d="M0,192v-192h192v192z" fill="none" stroke="none" stroke-width="1" stroke-linecap="butt" stroke-linejoin="miter"/><g id="&#xD0;&#xA1;&#xD0;&#xBB;&#xD0;&#xBE;&#xD0;&#xB9;_1"><path d="M124.35,22.35c-1.8,0.3 -3.45,1.05 -4.95,1.95c1.5,-0.9 3.3,-1.65 4.95,-1.95z" fill="#e1e0df" stroke="none" stroke-width="1" stroke-linecap="butt" stroke-linejoin="miter"/><path d="M25.65,169.65l54,-12c2.55,-0.6 4.95,-1.95 6.75,-3.75l79.35,-79.35c5.4,-5.4 5.4,-14.1 0,-19.5l-29.1,-28.95c-5.4,-5.4 -14.1,-5.4 -19.5,0l-79.35,79.35c-1.8,1.8 -3.15,4.2 -3.75,6.75l-11.7,54.15c-0.75,1.95 1.35,4.05 3.3,3.3" fill="#ffffff" stroke="none" stroke-width="1" stroke-linecap="butt" stroke-linejoin="miter"/><path d="M156.15,84.45l9.75,-9.75c5.4,-5.4 5.4,-14.1 0,-19.5l-29.1,-29.25c-5.4,-5.4 -14.1,-5.4 -19.5,0l-9.75,9.75l48.6,48.75" fill="#ffffff" stroke="none" stroke-width="1" stroke-linecap="butt" stroke-linejoin="miter"/><path d="M62.4,129.6l-24.3,-24.3l69.45,-69.45l48.6,48.6l-69.45,69.45l-24.3,-24.3" fill="#8eecec" stroke="none" stroke-width="1" stroke-linecap="butt" stroke-linejoin="miter"/><path d="M62.4,129.6l69.45,-69.45l24.3,24.3l-69.45,69.45l-24.3,-24.3" fill="#75dddd" stroke="none" stroke-width="1" stroke-linecap="butt" stroke-linejoin="miter"/><path d="M76.95,144.3v0c-1.95,1.95 -4.2,3.45 -7.05,3.9l-39.3,13.2l-8.25,4.8v0.3c-0.6,1.65 0.75,3.45 2.4,3.45c0,0 0,0 0.15,0c0.3,0 0.45,0 0.75,-0.15v0l54,-12c2.55,-0.6 4.95,-1.95 6.75,-3.75l0.15,-0.15l-9.6,-9.6M146.55,74.7v0l9.45,9.6v0l-9.45,-9.6" fill="#e7e7e7" stroke="none" stroke-width="1" stroke-linecap="butt" stroke-linejoin="miter"/><path d="M156.15,45.6c5.4,5.4 5.4,14.1 0,19.5l-9.6,9.6l9.45,9.6l0.15,0.15l9.75,-9.75c2.7,-2.7 4.05,-6.15 4.05,-9.6c0,-3.45 -1.35,-7.05 -4.05,-9.75l-9.75,-9.75" fill="#e7e7e7" stroke="none" stroke-width="1" stroke-linecap="butt" stroke-linejoin="miter"/><path d="M146.4,74.7l-69.45,69.6l9.75,9.6l69.45,-69.45l-0.15,-0.15l-9.6,-9.6" fill="#23bec9" stroke="none" stroke-width="1" stroke-linecap="butt" stroke-linejoin="miter"/><path d="M22.35,166.35l4.2,-23.1l22.5,22.5l-23.4,4.05c-1.95,0.6 -4.05,-1.5 -3.3,-3.45z" fill="#a8b2c6" stroke="none" stroke-width="1" stroke-linecap="butt" stroke-linejoin="miter"/><path d="M167.7,72.6c1.05,-1.5 1.65,-3.15 2.1,-4.95c-0.45,1.65 -1.05,3.45 -2.1,4.95z" fill="#e1e0df" stroke="none" stroke-width="1" stroke-linecap="butt" stroke-linejoin="miter"/><path d="M107.55,35.85l48.6,48.6" fill="none" stroke="none" stroke-width="1" stroke-linecap="butt" stroke-linejoin="miter"/><path d="M131.85,60.15" fill="none" stroke="#464c55" stroke-width="9" stroke-linecap="round" stroke-linejoin="round"/><path d="M131.85,60.15" fill="none" stroke="#464c55" stroke-width="9" stroke-linecap="round" stroke-linejoin="round"/><path d="M19.8,172.2c-1.95,-1.95 -2.55,-4.65 -1.8,-7.05l11.85,-53.85c0.9,-3.45 2.4,-6.45 4.95,-8.85l79.2,-79.5c7.05,-7.05 18.6,-7.2 25.8,-0.15l29.1,29.1c7.05,7.05 7.05,18.75 0,25.95l-79.35,79.35c-2.4,2.4 -5.55,4.2 -8.85,4.95l-53.85,11.85c-2.4,0.75 -5.1,0.15 -7.05,-1.8zM133.5,29.25c-3.6,-3.6 -9.6,-3.6 -13.2,0l-79.35,79.35c-1.2,1.2 -2.1,2.7 -2.4,4.5l-11.4,51.6l51.6,-11.4c1.65,-0.45 3.3,-1.2 4.5,-2.4l79.35,-79.35c3.6,-3.6 3.6,-9.6 0,-13.2z" fill="#464c55" stroke="none" stroke-width="1" stroke-linecap="butt" stroke-linejoin="miter"/></g></g></svg>
